<svg data-v-0dd9719b="" version="1.0" xmlns="http://www.w3.org/2000/svg" xmlns:xlink="http://www.w3.org/1999/xlink" width="100%" height="100%" viewBox="0 0 340.000000 250.000000" preserveAspectRatio="xMidYMid meet" color-interpolation-filters="sRGB" style="margin: auto;"> <rect data-v-0dd9719b="" x="0" y="0" width="100%" height="100%" fill="#fff" fill-opacity="1" class="background"></rect> <rect data-v-0dd9719b="" x="0" y="0" width="100%" height="100%" fill="url(#watermark)" fill-opacity="1" class="watermarklayer"></rect> <g data-v-0dd9719b="" fill="#333" class="icon-text-wrapper icon-svg-group iconsvg" transform="translate(78.86499786376953,90.36036682128906)"><g class="iconsvg-imagesvg" transform="translate(0,0)"><g><rect fill="#333" fill-opacity="0" stroke-width="2" x="0" y="0" width="60" height="69.27926471607047" class="image-rect"></rect> <svg x="0" y="0" width="60" height="69.27926471607047" filtersec="colorsb3253378060" class="image-svg-svg primary" style="overflow: visible;"><svg xmlns="http://www.w3.org/2000/svg" viewBox="0 0 87.94000244140625 101.54000854492188"><title>资源 56</title><g fill-rule="evenodd"><path fill="#087acb" d="M0 25.38l14.66 8.46 14.69-8.43 29.27 16.9V25.38l14.66 8.47 14.66-8.47L43.97 0 0 25.38z"></path><path fill="#35c4fd" d="M43.97 101.54V50.8l-14.66-8.49-.02 33.83-14.63-8.45V33.85L0 25.38v50.77l43.97 25.39z"></path><path fill="#189bf0" d="M43.97 101.54V50.77l14.65 8.46.02 16.91 14.64-8.45V33.84l14.66-8.46v50.77l-43.97 25.39z"></path></g></svg></svg> <!----></g></g> <g transform="translate(67,10.834632873535156)"><g data-gra="path-name" fill-rule="" class="tp-name iconsvg-namesvg"><g transform="scale(1)"><g><path d="M8.91-46.57L8.91-46.57Q9.75-46.57 10.16-46.36 10.56-46.15 11.08-45.5L11.08-45.5 38.06-10.4Q37.96-11.25 37.93-12.04 37.9-12.84 37.9-13.59L37.9-13.59 37.9-46.57 43.42-46.57 43.42 0 40.23 0Q39.49 0 38.98-0.26 38.48-0.52 37.99-1.14L37.99-1.14 11.05-36.2Q11.12-35.39 11.15-34.61 11.18-33.83 11.18-33.18L11.18-33.18 11.18 0 5.66 0 5.66-46.57 8.91-46.57ZM69.19-17.42L61.72-17.42 61.72 0 55.45 0 55.45-46.57 69.19-46.57Q73.61-46.57 76.88-45.55 80.15-44.52 82.29-42.64 84.44-40.76 85.49-38.09 86.55-35.43 86.55-32.14L86.55-32.14Q86.55-28.89 85.41-26.2 84.27-23.5 82.08-21.55 79.89-19.6 76.64-18.51 73.39-17.42 69.19-17.42L69.19-17.42ZM61.72-41.6L61.72-22.43 69.19-22.43Q71.89-22.43 73.95-23.14 76.02-23.86 77.42-25.14 78.81-26.42 79.53-28.21 80.24-30 80.24-32.14L80.24-32.14Q80.24-36.59 77.5-39.1 74.75-41.6 69.19-41.6L69.19-41.6 61.72-41.6ZM119.89-42.28L118.37-39.29Q118.07-38.8 117.75-38.56 117.42-38.32 116.9-38.32L116.9-38.32Q116.35-38.32 115.62-38.87 114.89-39.42 113.77-40.09 112.65-40.76 111.07-41.31 109.49-41.86 107.25-41.86L107.25-41.86Q105.14-41.86 103.51-41.29 101.89-40.72 100.8-39.75 99.71-38.77 99.16-37.46 98.61-36.14 98.61-34.61L98.61-34.61Q98.61-32.66 99.56-31.38 100.52-30.1 102.1-29.19 103.68-28.28 105.67-27.61 107.67-26.94 109.77-26.23 111.87-25.51 113.86-24.62 115.86-23.73 117.44-22.36 119.02-21 119.97-19.01 120.93-17.03 120.93-14.14L120.93-14.14Q120.93-11.08 119.89-8.4 118.85-5.72 116.85-3.74 114.86-1.76 111.95-0.62 109.04 0.52 105.33 0.52L105.33 0.52Q100.81 0.52 97.09-1.12 93.37-2.76 90.74-5.56L90.74-5.56 92.56-8.55Q92.82-8.91 93.19-9.15 93.57-9.39 94.02-9.39L94.02-9.39Q94.7-9.39 95.58-8.66 96.46-7.93 97.78-7.05 99.09-6.17 100.96-5.44 102.83-4.71 105.53-4.71L105.53-4.71Q107.77-4.71 109.53-5.33 111.28-5.95 112.5-7.07 113.72-8.19 114.37-9.75 115.02-11.31 115.02-13.23L115.02-13.23Q115.02-15.34 114.06-16.69 113.1-18.04 111.54-18.95 109.98-19.86 107.98-20.49 105.98-21.13 103.89-21.79 101.79-22.46 99.79-23.34 97.79-24.21 96.23-25.61 94.67-27.01 93.71-29.1 92.76-31.2 92.76-34.29L92.76-34.29Q92.76-36.76 93.71-39.07 94.67-41.37 96.49-43.16 98.31-44.95 100.99-46.02 103.68-47.09 107.15-47.09L107.15-47.09Q111.05-47.09 114.27-45.86 117.49-44.62 119.89-42.28L119.89-42.28Z" transform="translate(-5.659999847412109, 47.09000015258789)"></path></g> <!----> <!----> <!----> <!----> <!----> <!----> <!----></g></g> <!----></g></g></svg>